<svg width="359" height="97" viewBox="0 0 359 97" fill="none" xmlns="http://www.w3.org/2000/svg">
<g clip-path="url(#clip0_2868_879)">
<path fill-rule="evenodd" clip-rule="evenodd" d="M311.882 65.4962C311.852 65.4522 311.822 65.4072 311.792 65.3621C311.762 65.3176 311.732 65.2731 311.703 65.2295C306.57 65.3133 301.437 65.3979 296.277 65.4829L296.241 65.4835C290.374 65.5802 284.469 65.6776 278.488 65.7749C278.649 65.5989 278.782 65.4493 278.898 65.3181L278.898 65.3179L278.898 65.3177C279.095 65.096 279.245 64.9268 279.407 64.7717C284.08 60.3401 288.755 55.9111 293.429 51.4822L293.439 51.4727C302.773 42.6292 312.107 33.7863 321.421 24.924C325.378 21.1582 329.288 17.3406 333.074 13.4036C335.132 11.2619 336.939 8.8615 337.696 5.86396C338.245 3.68646 337.302 1.7518 335.239 0.824274C332.787 -0.278406 330.183 -0.115193 327.711 0.374445C322.336 1.43732 316.962 2.59971 311.695 4.08852C303.43 6.42525 295.221 8.9849 287.035 11.5963C278.754 14.2395 270.513 17.0022 262.288 19.8127C253.775 22.7205 245.289 25.7053 236.803 28.6903L234.484 29.5059C224.69 32.9493 214.896 36.3966 205.126 39.8997C192.184 44.5453 179.257 49.2267 166.334 53.932C159.294 56.4948 152.261 59.0756 145.229 61.6561L145.226 61.6572C139.85 63.6297 134.475 65.6021 129.098 67.5662L129.008 67.599C128.021 67.9592 127.004 68.3302 125.973 68.45C124.879 68.5741 123.772 68.5768 122.665 68.5796C122.245 68.5806 121.825 68.5816 121.406 68.5893C119.612 68.6238 117.818 68.6585 116.024 68.6932C110.563 68.7988 105.101 68.9044 99.641 69.0033C95.5981 69.075 91.5553 69.1426 87.5124 69.2103C83.4695 69.278 79.4266 69.3457 75.3837 69.4173C71.4275 69.4866 67.4714 69.5602 63.5152 69.6337H63.515C60.8784 69.6828 58.2418 69.7318 55.6052 69.7796C47.5194 69.9229 39.4376 70.0622 31.3518 70.2015C28.4705 70.2508 25.5892 70.2983 22.7077 70.3459L22.6865 70.3462C17.8868 70.4254 13.0866 70.5047 8.28484 70.5917C8.14515 70.5943 8.00439 70.5954 7.86317 70.5965C7.13905 70.6022 6.40252 70.608 5.7329 70.8146C4.28224 71.2647 2.86231 71.8238 1.44502 72.3819L1.44464 72.382L1.44375 72.3824C1.16949 72.4904 0.89533 72.5983 0.621064 72.7055C0.456819 72.7684 0.320807 72.9066 0.18585 73.0438L0.185833 73.0438C0.124521 73.1061 0.0634258 73.1682 0 73.223L0.0270177 73.2882C0.0579961 73.3632 0.0895133 73.4396 0.123417 73.5135L2.5055 73.4638L2.51417 73.4636C41.3461 72.6522 80.1817 71.8408 119.013 71.0256C116.386 72.1919 113.731 73.1631 111.075 74.1344L111.075 74.1346C109.185 74.8268 107.295 75.5185 105.405 76.2104L105.392 76.2153C99.7751 78.2708 94.1569 80.327 88.5455 82.3987C83.2638 84.3447 77.9881 86.3046 72.7128 88.2643L72.7106 88.2651C70.519 89.0793 68.3274 89.8935 66.1354 90.7066C65.2697 91.0279 64.404 91.3489 63.5384 91.6699C59.5991 93.1307 55.6613 94.591 51.7315 96.0727C51.5378 96.1464 51.3814 96.321 51.2254 96.4953L51.2253 96.4954C51.1537 96.5754 51.0821 96.6554 51.0069 96.7256C51.0971 96.754 51.1873 96.7893 51.2775 96.8246C51.4779 96.9031 51.6784 96.9816 51.8788 96.9843C54.0684 97.0042 56.2541 97.0042 58.4438 96.9883C58.8021 96.9843 59.1803 96.9405 59.5107 96.8171C64.9024 94.7774 70.2917 92.7305 75.6805 90.6839L75.7277 90.666C77.3064 90.0664 78.885 89.4668 80.4637 88.8675C83.4322 87.7401 86.4 86.6111 89.3673 85.4823L89.3728 85.4802C93.1092 84.0589 96.8449 82.6378 100.581 81.2204C103.36 80.1657 106.141 79.1124 108.922 78.059L108.934 78.0543L108.949 78.0488C112.897 76.5531 116.846 75.0573 120.793 73.5573C121.134 73.428 121.474 73.2974 121.814 73.1669C125.124 71.8962 128.4 70.6384 132.112 70.6673C137.177 70.7077 142.243 70.5829 147.31 70.4582L147.311 70.4581C149.237 70.4107 151.162 70.3633 153.088 70.3249C155.853 70.2692 158.618 70.2075 161.384 70.1458H161.384C164.151 70.0841 166.917 70.0224 169.682 69.9667C173.705 69.885 177.728 69.8085 181.75 69.732C184.785 69.6743 187.82 69.6166 190.854 69.5566L190.975 69.5543C195.605 69.4635 200.238 69.3727 204.868 69.274C215.832 69.0391 226.8 68.8003 237.764 68.5614C242.105 68.4646 246.447 68.3668 250.79 68.2691L250.887 68.2669C255.261 68.1683 259.635 68.0698 264.008 67.9723C264.1 67.9698 264.193 67.9813 264.345 67.9999L264.346 68C264.438 68.0112 264.55 68.025 264.697 68.04L257.749 74.63L257.591 74.7792C249.803 82.1661 242.073 89.4969 234.281 96.8888C234.394 96.9098 234.487 96.9298 234.566 96.947C234.712 96.9785 234.813 97.0002 234.914 97.0002C235.577 97.001 236.24 97.0025 236.903 97.0039C239.556 97.0096 242.209 97.0154 244.863 96.9803C245.261 96.9763 245.727 96.6857 246.033 96.3951L248.133 94.4121L248.139 94.4066C256.924 86.1094 265.708 77.8134 274.431 69.4492C275.737 68.1952 277.07 67.6976 278.83 67.6897C282.642 67.6677 286.454 67.5872 290.267 67.5067C291.988 67.4704 293.71 67.434 295.432 67.403C296.222 67.3893 297.013 67.3926 297.805 67.396H297.805C298.158 67.3975 298.51 67.3991 298.863 67.3991L299.054 67.7693C291.06 75.3567 283.066 82.9441 274.956 90.6429C275.083 90.6638 275.178 90.6827 275.254 90.6978C275.367 90.7203 275.438 90.7345 275.51 90.7345C276.159 90.7353 276.809 90.737 277.458 90.7387H277.459C279.927 90.7451 282.394 90.7515 284.862 90.7106C285.292 90.7026 285.797 90.408 286.128 90.0975C287.783 88.56 289.422 87.0016 291.061 85.4433C291.798 84.7423 292.535 84.0412 293.274 83.3421C295.461 81.2696 297.65 79.1975 299.839 77.1255L299.914 77.0547C303.615 73.5507 307.317 70.0465 311.014 66.5392C311.232 66.3237 311.421 66.0809 311.609 65.8392C311.699 65.7236 311.789 65.6083 311.882 65.4962ZM267.611 65.3171C267.026 65.8784 266.425 66.1371 265.597 66.1491C258.634 66.2287 251.674 66.3402 244.711 66.4636C238.058 66.5811 231.404 66.7038 224.751 66.8264L224.75 66.8264C216.984 66.9696 209.218 67.1127 201.452 67.2478C194.682 67.3651 187.911 67.4714 181.141 67.5777C175.048 67.6734 168.955 67.7691 162.862 67.8728C156.356 67.9856 149.85 68.1153 143.344 68.245L143.335 68.2452C140.894 68.2939 138.454 68.3425 136.013 68.3903C135.822 68.3929 135.631 68.392 135.44 68.3912C135.344 68.3907 135.249 68.3903 135.153 68.3903C135.145 68.3067 135.133 68.2271 135.125 68.1435C136.043 67.8059 136.96 67.4679 137.877 67.1299C140.054 66.3281 142.231 65.526 144.409 64.7279C150.68 62.431 156.95 60.1381 163.221 57.8491L163.241 57.8416L163.245 57.8401C170.192 55.3034 177.139 52.7667 184.09 50.2379C190.985 47.73 197.881 45.226 204.78 42.7341C211.711 40.2301 218.651 37.7342 225.59 35.2502C231.968 32.9652 238.349 30.6882 244.735 28.4271C251.28 26.1143 257.829 23.8134 264.386 21.5324C265.966 20.9821 267.545 20.4282 269.123 19.8742L269.124 19.8739C274.157 18.1078 279.19 16.3418 284.26 14.6934C293.154 11.8033 302.084 9.01675 311.042 6.33767C314.154 5.40654 317.382 4.82439 320.585 4.24679L320.712 4.22387C321.918 4.00891 323.224 4.14824 324.454 4.33533C325.9 4.5503 326.505 5.71667 326.119 7.14975C325.521 9.36706 324.132 11.1266 322.607 12.7189C319.681 15.7801 316.659 18.7577 313.594 21.6836C307.439 27.551 301.265 33.397 295.09 39.2434C292.438 41.7545 289.786 44.2656 287.135 46.7786L284.747 49.0436L284.739 49.0511C279.028 54.468 273.315 59.8864 267.611 65.3171ZM358.19 65.444C357.346 65.1813 356.463 64.9902 355.583 64.8907C350.355 64.3015 345.311 65.452 340.279 66.6064C339.094 66.877 337.92 67.199 336.699 67.5339C336.124 67.6916 335.538 67.8522 334.936 68.0116C335.16 67.3641 335.64 66.9419 336.107 66.5312C336.645 66.0581 337.166 65.6002 337.257 64.8309C337.172 64.8119 337.105 64.7935 337.05 64.7783C336.966 64.7553 336.909 64.7394 336.851 64.7394L335.021 64.7603L335.019 64.7604C330.792 64.8086 326.562 64.8569 322.336 64.9265C322.187 64.9292 322.04 65.0515 321.894 65.1733C321.825 65.2307 321.756 65.2879 321.687 65.3325C321.739 65.4059 321.787 65.489 321.834 65.5722C321.939 65.7553 322.044 65.9391 322.2 66.0212C323.881 66.893 324.088 67.8285 322.794 69.0546C317.025 74.537 311.248 80.0115 305.471 85.4859L305.456 85.5004L305.424 85.5311L305.377 85.5758C303.668 87.197 301.96 88.8182 300.252 90.4354C300.27 90.4752 300.289 90.514 300.308 90.5528C300.327 90.5916 300.346 90.6305 300.364 90.6703C301.072 90.6703 301.78 90.6708 302.488 90.6714H302.49C305.086 90.6734 307.682 90.6754 310.281 90.6504C310.567 90.6464 310.898 90.4155 311.125 90.2005L312.657 88.7498C317.53 84.1383 322.402 79.5267 327.245 74.8825L327.396 74.7369C329.545 72.6768 331.649 70.6588 334.753 69.9821C335.387 69.8435 336.019 69.694 336.651 69.5446C339.303 68.9173 341.948 68.2916 344.71 68.4813C347.381 68.6684 349.862 69.6238 352.314 70.619C353.341 71.037 354.201 70.8539 354.97 70.1572C356.168 69.0665 357.334 67.9399 358.493 66.8094C359.142 66.1964 359.054 65.7147 358.19 65.444ZM307.869 56.6943C308.399 54.3217 310.744 52.3751 313.136 52.3552C314.82 52.3433 316.214 52.9961 316.974 54.5208C317.822 56.2246 317.472 57.9044 316.301 59.3335C315.147 60.7427 313.61 61.527 311.739 61.5429C309.012 61.5309 307.276 59.3574 307.869 56.6943Z" fill="white"/>
</g>
<defs>
<clipPath id="clip0_2868_879">
<rect width="358.92" height="97" fill="white"/>
</clipPath>
</defs>
</svg>