<svg width="40" height="40" viewBox="0 0 40 40" fill="none" xmlns="http://www.w3.org/2000/svg">
<path d="M10.7188 20.1875C10.7188 20.0524 10.7761 19.9305 10.8674 19.845L16.8669 14.2205C17.0558 14.0435 17.3524 14.053 17.5295 14.2419C17.7065 14.4308 17.697 14.7274 17.5081 14.9045L12.3729 19.7187L28.8125 19.7187C29.0714 19.7187 29.2813 19.9286 29.2813 20.1875C29.2813 20.4464 29.0714 20.6562 28.8125 20.6562L12.3729 20.6562L17.5081 25.4705C17.697 25.6476 17.7065 25.9442 17.5295 26.1331C17.3524 26.322 17.0558 26.3315 16.8669 26.1545L10.8679 20.5304C10.7763 20.445 10.7188 20.3229 10.7188 20.1875Z" fill="white"/>
<path fill-rule="evenodd" clip-rule="evenodd" d="M10.8034 19.7765C10.6939 19.8789 10.625 20.0253 10.625 20.1875C10.625 20.3499 10.694 20.4964 10.8038 20.5988M10.8038 20.5988L16.8028 26.2229C17.0294 26.4353 17.3854 26.4239 17.5979 26.1972C17.8103 25.9706 17.7989 25.6146 17.5722 25.4021L12.6099 20.75L28.8125 20.75C29.1232 20.75 29.375 20.4982 29.375 20.1875C29.375 19.8768 29.1232 19.625 28.8125 19.625L12.6099 19.625L17.5722 14.9729C17.7989 14.7604 17.8103 14.4044 17.5979 14.1778C17.3854 13.9511 17.0294 13.9397 16.8028 14.1521L10.8034 19.7765M10.8674 19.845C10.7761 19.9305 10.7188 20.0524 10.7188 20.1875C10.7188 20.3229 10.7763 20.445 10.8679 20.5304L16.8669 26.1545C17.0558 26.3315 17.3524 26.322 17.5295 26.1331C17.7065 25.9442 17.697 25.6476 17.5081 25.4705L12.3729 20.6562L28.8125 20.6562C29.0714 20.6562 29.2813 20.4464 29.2813 20.1875C29.2813 19.9286 29.0714 19.7187 28.8125 19.7187L12.3729 19.7187L17.5081 14.9045C17.697 14.7274 17.7065 14.4308 17.5295 14.2419C17.3524 14.053 17.0558 14.0435 16.8669 14.2205L10.8674 19.845Z" fill="white"/>
</svg>