<svg width="40" height="40" viewBox="0 0 40 40" fill="none" xmlns="http://www.w3.org/2000/svg">
<path d="M29.2812 20.1875C29.2812 20.0524 29.2239 19.9305 29.1326 19.845L23.1331 14.2205C22.9442 14.0435 22.6476 14.053 22.4705 14.2419C22.2935 14.4308 22.303 14.7274 22.4919 14.9045L27.6271 19.7187L11.1875 19.7187C10.9286 19.7187 10.7187 19.9286 10.7187 20.1875C10.7187 20.4464 10.9286 20.6562 11.1875 20.6562L27.6271 20.6562L22.4919 25.4705C22.303 25.6476 22.2935 25.9442 22.4705 26.1331C22.6476 26.322 22.9442 26.3315 23.1331 26.1545L29.1321 20.5304C29.2237 20.445 29.2812 20.3229 29.2812 20.1875Z" fill="white"/>
<path fill-rule="evenodd" clip-rule="evenodd" d="M29.1966 19.7765C29.3061 19.8789 29.375 20.0253 29.375 20.1875C29.375 20.3499 29.306 20.4964 29.1962 20.5988M29.1962 20.5988L23.1972 26.2229C22.9706 26.4353 22.6146 26.4239 22.4021 26.1972C22.1897 25.9706 22.2011 25.6146 22.4278 25.4021L27.3901 20.75L11.1875 20.75C10.8768 20.75 10.625 20.4982 10.625 20.1875C10.625 19.8768 10.8768 19.625 11.1875 19.625L27.3901 19.625L22.4278 14.9729C22.2011 14.7604 22.1897 14.4044 22.4021 14.1778C22.6146 13.9511 22.9706 13.9397 23.1972 14.1521L29.1966 19.7765M29.1326 19.845C29.2239 19.9305 29.2812 20.0524 29.2812 20.1875C29.2812 20.3229 29.2237 20.445 29.1321 20.5304L23.1331 26.1545C22.9442 26.3315 22.6476 26.322 22.4705 26.1331C22.2935 25.9442 22.303 25.6476 22.4919 25.4705L27.6271 20.6562L11.1875 20.6562C10.9286 20.6562 10.7187 20.4464 10.7187 20.1875C10.7187 19.9286 10.9286 19.7187 11.1875 19.7187L27.6271 19.7187L22.4919 14.9045C22.303 14.7274 22.2935 14.4308 22.4705 14.2419C22.6476 14.053 22.9442 14.0435 23.1331 14.2205L29.1326 19.845Z" fill="white"/>
</svg>