<svg id="Layer_1" data-name="Layer 1" xmlns="http://www.w3.org/2000/svg" height="34" viewBox="0 0 1198.99 96.88">
  <defs>
    <style>
      .cls-1 {
        fill: #fff;
        stroke-width: 0px;
      }
    </style>
  </defs>
  <path class="cls-1" d="m1121.61,41.7l-41.45-35.28h-26.41v1.51l58.17,49.18v33.34h20.77v-33.34l58.17-49.18v-1.51s-26.41,0-26.41,0l-41.44,35.28c-.4.34-1,.34-1.4,0Z"/>
  <path class="cls-1" d="m72.26,56.68h40.37c.4,0,.72.32.72.72v15.3c0,.4-.32.72-.72.72H46.98c-9.98,0-18.08-8.09-18.08-18.08v-13.9c0-9.94,8.06-18,18-18h82.86V6.42H44.13C24.25,6.42,8.13,22.54,8.13,42.42v12.04c0,19.88,16.12,36,36,36h88.97v-50.28h-60.84v16.5Z"/>
  <path class="cls-1" d="m884.99,6.42v17.03h47.65c.4,0,.72.32.72.72v66.29h20.78V24.17c0-.4.32-.72.72-.72h47.66V6.42h-117.53Z"/>
  <rect class="cls-1" x="790.02" y="6.42" width="20.78" height="84.04"/>
  <path class="cls-1" d="m272.55,41.27v1.51l47.58,47.68h23.98v-1.51l-32.27-31.17c16.75,0,25.67-11.07,25.67-25.01v-1.34c0-13.94-8.92-25.01-25.67-25.01h-85.36v84.04h20.78V24.17c0-.4.32-.72.72-.72h60.75c4.77,0,8.63,3.46,8.63,8.23v1.36c0,4.77-3.86,8.23-8.63,8.23h-36.18"/>
  <path class="cls-1" d="m716.6,7.93v-1.51h-22.69l-45.11,62.34c-.24.34-.75.34-.99,0l-45.14-62.34h-22.69v1.51l55.24,75.85c6.47,8.89,19.73,8.89,26.19,0l55.19-75.84Z"/>
  <path class="cls-1" d="m486.19,13.09c-6.47-8.89-19.73-8.89-26.2,0l-55.2,75.86v1.51h22.67l13.45-18.61c.27-.37.7-.6,1.17-.6h62.02c.46,0,.9.22,1.17.6l13.46,18.61h22.67v-1.51l-55.21-75.86Zm5.7,41.66h-37.63c-.41,0-.65-.47-.41-.8l18.73-25.84c.24-.34.75-.34.99,0l18.72,25.84c.24.33,0,.8-.41.8Z"/>
</svg>