<svg width="40" height="40" viewBox="0 0 40 40" fill="none" xmlns="http://www.w3.org/2000/svg">
<path d="M10 13.75C10 13.4048 10.2634 13.125 10.5882 13.125H29.4118C29.7366 13.125 30 13.4048 30 13.75C30 14.0952 29.7366 14.375 29.4118 14.375H10.5882C10.2634 14.375 10 14.0952 10 13.75Z" fill="white" fill-opacity="0.9"/>
<path d="M10 20C10 19.6548 10.2634 19.375 10.5882 19.375H29.4118C29.7366 19.375 30 19.6548 30 20C30 20.3452 29.7366 20.625 29.4118 20.625H10.5882C10.2634 20.625 10 20.3452 10 20Z" fill="white" fill-opacity="0.9"/>
<path d="M10.5882 25.625C10.2634 25.625 10 25.9048 10 26.25C10 26.5952 10.2634 26.875 10.5882 26.875H29.4118C29.7366 26.875 30 26.5952 30 26.25C30 25.9048 29.7366 25.625 29.4118 25.625H10.5882Z" fill="white" fill-opacity="0.9"/>
</svg>