<svg width="24" height="24" viewBox="0 0 24 24" fill="none" xmlns="http://www.w3.org/2000/svg">
<g id="Profile">
<g id="Union">
<path fill-rule="evenodd" clip-rule="evenodd" d="M19.3274 19.0137L19.3467 19.044L19.3698 19.0716C19.4291 19.1428 19.4776 19.2182 19.5388 19.3242C19.5548 19.3519 19.5721 19.3825 19.5912 19.4164L19.592 19.4179C19.642 19.5063 19.7028 19.614 19.7732 19.7266C19.9379 19.99 20.285 20.0699 20.5484 19.9052C20.8118 19.7405 20.8918 19.3934 20.727 19.13C20.6706 19.0399 20.6267 18.9621 20.5794 18.8783C20.5584 18.841 20.5366 18.8024 20.5131 18.7617C20.4448 18.6434 20.3654 18.514 20.2579 18.3805C17.6749 14.358 13.3105 14.0625 12.3588 14.0625H11.6414C10.4154 14.0625 5.63613 14.4352 3.24628 19.2499C3.10816 19.5282 3.22177 19.8657 3.50003 20.0038C3.7783 20.142 4.11585 20.0284 4.25397 19.7501C6.34791 15.5315 10.5363 15.1875 11.6414 15.1875H12.3588C13.1982 15.1875 17.0655 15.464 19.3274 19.0137Z" fill="white"/>
<path fill-rule="evenodd" clip-rule="evenodd" d="M12 12.9375C14.5889 12.9375 16.6875 10.8388 16.6875 8.25C16.6875 5.66117 14.5889 3.5625 12 3.5625C9.41121 3.5625 7.31254 5.66117 7.31254 8.25C7.31254 10.8388 9.41121 12.9375 12 12.9375ZM15.5625 8.25C15.5625 10.2175 13.9676 11.8125 12 11.8125C10.0325 11.8125 8.43754 10.2175 8.43754 8.25C8.43754 6.28249 10.0325 4.6875 12 4.6875C13.9676 4.6875 15.5625 6.28249 15.5625 8.25ZM12 3.75C12 3.75 12 3.75 12 3.75V3.75ZM11.9516 11.9997C11.9677 11.9999 11.9839 12 12 12L11.9516 11.9997Z" fill="white"/>
</g>
</g>
</svg>