<svg width="24" height="24" viewBox="0 0 24 24" fill="none" xmlns="http://www.w3.org/2000/svg">
<path d="M21.2812 12.1875C21.2812 12.0524 21.2239 11.9305 21.1326 11.845L15.1331 6.22053C14.9442 6.04347 14.6476 6.05304 14.4705 6.2419C14.2935 6.43077 14.303 6.72741 14.4919 6.90447L19.6271 11.7187L3.1875 11.7187C2.92862 11.7187 2.71875 11.9286 2.71875 12.1875C2.71875 12.4464 2.92862 12.6562 3.1875 12.6562L19.6271 12.6562L14.4919 17.4705C14.303 17.6476 14.2935 17.9442 14.4705 18.1331C14.6476 18.322 14.9442 18.3315 15.1331 18.1545L21.1321 12.5304C21.2237 12.445 21.2812 12.3229 21.2812 12.1875Z" fill="#D7BE96"/>
<path fill-rule="evenodd" clip-rule="evenodd" d="M21.1966 11.7765C21.3061 11.8789 21.375 12.0253 21.375 12.1875C21.375 12.3499 21.306 12.4964 21.1962 12.5988M21.1962 12.5988L15.1972 18.2229C14.9706 18.4353 14.6146 18.4239 14.4021 18.1972C14.1897 17.9706 14.2011 17.6146 14.4278 17.4021L19.3901 12.75L3.1875 12.75C2.87684 12.75 2.625 12.4982 2.625 12.1875C2.625 11.8768 2.87684 11.625 3.1875 11.625L19.3901 11.625L14.4278 6.97286C14.2011 6.76039 14.1897 6.40442 14.4021 6.17778C14.6146 5.95114 14.9706 5.93966 15.1972 6.15213L21.1966 11.7765M21.1326 11.845C21.2239 11.9305 21.2812 12.0524 21.2812 12.1875C21.2812 12.3229 21.2237 12.445 21.1321 12.5304L15.1331 18.1545C14.9442 18.3315 14.6476 18.322 14.4705 18.1331C14.2935 17.9442 14.303 17.6476 14.4919 17.4705L19.6271 12.6562L3.1875 12.6562C2.92862 12.6562 2.71875 12.4464 2.71875 12.1875C2.71875 11.9286 2.92862 11.7187 3.1875 11.7187L19.6271 11.7187L14.4919 6.90447C14.303 6.72741 14.2935 6.43077 14.4705 6.2419C14.6476 6.05304 14.9442 6.04347 15.1331 6.22053L21.1326 11.845Z" fill="#D7BE96"/>
</svg>